<?xml version="1.0" standalone="no"?>
<!DOCTYPE svg PUBLIC "-//W3C//DTD SVG 20010904//EN"
 "http://www.w3.org/TR/2001/REC-SVG-20010904/DTD/svg10.dtd">
<svg version="1.0" xmlns="http://www.w3.org/2000/svg"
 width="129.000000pt" height="41.000000pt" viewBox="0 0 129.000000 41.000000"
 preserveAspectRatio="xMidYMid meet">
<metadata>
Created by potrace 1.15, written by Peter Selinger 2001-2017
</metadata>
<g transform="translate(0.000000,41.000000) scale(0.100000,-0.100000)"
fill="#000000" stroke="none">
<path d="M1021 341 c-7 -5 -21 -6 -31 -4 -27 7 -90 -16 -90 -33 0 -8 -20 -24
-44 -35 -41 -18 -46 -18 -82 -3 -26 11 -52 14 -88 9 -28 -3 -71 -6 -96 -5 -99
3 -136 3 -155 1 -41 -4 -121 13 -145 31 -22 16 -41 18 -125 16 l-100 -3 -3
-70 c-2 -38 1 -79 7 -90 5 -11 12 -42 15 -69 3 -27 11 -55 17 -62 9 -11 125
-13 600 -14 l589 0 0 118 0 118 -42 32 c-24 18 -54 36 -68 39 -14 3 -34 12
-45 19 -22 16 -93 18 -114 5z m80 -11 c21 -12 25 -50 7 -68 -9 -9 -9 -15 0
-24 7 -7 12 -44 12 -95 0 -90 -7 -101 -54 -89 -22 5 -24 11 -28 93 -3 49 -1
93 4 100 5 7 5 14 -2 18 -15 9 -12 41 6 59 18 19 28 20 55 6z m-87 -47 c3 -16
2 -68 -2 -118 -6 -82 -9 -91 -32 -102 -42 -21 -95 -16 -129 13 -27 23 -31 32
-31 78 0 64 27 96 83 98 34 1 37 4 37 30 0 25 3 28 34 28 30 0 35 -4 40 -27z
m-739 -18 c0 -25 -5 -31 -30 -35 l-30 -5 0 -79 c0 -90 -13 -109 -59 -88 -25
11 -26 15 -26 92 l0 81 -27 -3 c-23 -2 -29 1 -31 20 -7 49 0 53 105 50 l98 -3
0 -30z m940 -2 c6 -15 18 -23 33 -23 20 0 23 -4 20 -32 -2 -25 -8 -34 -25 -36
-35 -5 -32 -52 2 -52 19 0 25 -5 25 -23 0 -32 -18 -47 -56 -47 -60 0 -73 23
-74 130 -1 52 -1 99 -1 103 1 5 16 7 34 5 22 -2 35 -10 42 -25z m-831 -13 c14
-5 26 -17 26 -27 1 -17 1 -17 14 0 18 23 70 38 107 30 56 -11 91 -89 52 -112
-15 -8 -16 -12 -5 -22 36 -38 -5 -74 -76 -66 -61 7 -95 41 -95 97 0 38 -1 41
-26 38 -24 -3 -26 -7 -31 -68 -5 -59 -7 -65 -28 -68 -41 -6 -52 14 -52 93 0
78 12 99 60 108 14 2 26 5 27 6 1 0 13 -3 27 -9z m399 -17 c14 -13 17 -33 17
-100 l0 -83 -30 0 c-37 0 -50 23 -50 89 0 38 -4 51 -15 51 -11 0 -15 -16 -17
-67 -3 -62 -5 -68 -26 -71 -41 -6 -52 14 -52 92 0 39 4 77 9 84 20 33 129 36
164 5z"/>
</g>
</svg>
